<?xml version="1.0" encoding="UTF-8"?>
<svg width="203px" height="189px" viewBox="0 0 203 189" version="1.1" xmlns="http://www.w3.org/2000/svg" xmlns:xlink="http://www.w3.org/1999/xlink">
    <title>[::]</title>
    <g id="Page-1" stroke="none" stroke-width="1" fill="none" fill-rule="evenodd">
        <path d="M39,189 L39,174.237513 L17.265625,174.237513 L17.265625,14.7624867 L39,14.7624867 L39,0 L0,0 L0,189 L39,189 Z M88,65 L88,43 L67,43 L67,65 L88,65 Z M88,149 L88,127 L67,127 L67,149 L88,149 Z M146,65 L146,43 L125,43 L125,65 L146,65 Z M146,149 L146,127 L125,127 L125,149 L146,149 Z M203,189 L203,0 L164,0 L164,14.7624867 L185.632812,14.7624867 L185.632812,174.237513 L164,174.237513 L164,189 L203,189 Z" id="[::]" fill="#B78E6C" fill-rule="nonzero"></path>
    </g>
</svg>