<?xml version="1.0" encoding="UTF-8"?>
<svg width="200px" height="124px" viewBox="0 0 200 124" version="1.1" xmlns="http://www.w3.org/2000/svg" xmlns:xlink="http://www.w3.org/1999/xlink">
    <title>[::]</title>
    <g id="Page-1" stroke="none" stroke-width="1" fill="none" fill-rule="evenodd">
        <path d="M38.0952381,124 L38.0952381,114.314559 L16.8650794,114.314559 L16.8650794,9.68544102 L38.0952381,9.68544102 L38.0952381,0 L0,0 C0,27.5057644 0,48.1724311 0,62 C0,75.8275689 0,96.4942356 0,124 L38.0952381,124 Z M80.5800866,42.8554717 L80.5800866,22.0754717 L59.8008658,22.0754717 L59.8008658,42.8554717 L80.5800866,42.8554717 Z M79.5800866,104.226541 L79.5800866,83.4465409 L58.8008658,83.4465409 L58.8008658,104.226541 L79.5800866,104.226541 Z M139.722944,42.8554717 L139.722944,22.0754717 L118.943723,22.0754717 L118.943723,42.8554717 L139.722944,42.8554717 Z M139.722944,104.226541 L139.722944,83.4465409 L118.943723,83.4465409 L118.943723,104.226541 L139.722944,104.226541 Z M200,124 L200,0 L161.904762,0 L161.904762,9.68544102 L183.035714,9.68544102 L183.035714,114.314559 L161.904762,114.314559 L161.904762,124 L200,124 Z" id="[::]" fill="#B78E6C" fill-rule="nonzero"></path>
    </g>
</svg>